<svg version="1.1" id="Layer_1" xmlns="http://www.w3.org/2000/svg" xmlns:xlink="http://www.w3.org/1999/xlink" x="0px" y="0px"
	 width="100%" viewBox="0 0 512 512" enable-background="new 0 0 512 512" xml:space="preserve">
<path fill="#FEC007" opacity="1.000000" stroke="none" 
	d="
M277.000000,513.000000 
	C263.979095,513.000000 250.958206,513.000000 237.809326,512.650818 
	C236.666382,511.869751 235.660751,511.085968 234.635086,511.058807 
	C219.382584,510.655029 204.443512,508.241150 189.515213,505.124756 
	C163.671921,499.729736 139.629944,490.141083 117.449135,475.907623 
	C101.477524,465.658600 87.919350,452.703674 75.685493,438.245667 
	C62.124336,422.219116 51.799046,404.374481 43.877205,384.955292 
	C36.438683,366.720856 30.705437,348.049103 27.895128,328.572723 
	C25.633333,312.897766 22.742495,297.176514 22.268250,281.411499 
	C21.477829,255.136093 20.792191,228.740265 25.024231,202.599915 
	C26.997644,190.410614 28.571625,178.093964 31.569811,166.147018 
	C36.895802,144.924469 44.284431,124.429543 55.204338,105.259186 
	C69.978241,79.322975 89.518028,57.898079 114.055847,41.009315 
	C130.856903,29.445578 149.288452,21.205378 168.674118,15.093204 
	C192.458618,7.594115 217.030823,4.385927 241.802200,3.168377 
	C254.680511,2.535389 267.643829,3.757703 280.571564,3.972953 
	C297.652985,4.257361 314.333466,7.216040 330.932007,10.970877 
	C351.313904,15.581567 370.620239,23.121958 388.672028,33.440662 
	C410.279175,45.791660 428.367554,62.420067 443.612152,82.109581 
	C458.570984,101.429985 469.202087,123.073067 476.871399,146.108414 
	C485.758575,172.801910 490.716827,200.484879 491.694397,228.472015 
	C492.743256,258.500977 493.781799,288.749054 487.936157,318.537781 
	C484.789368,334.573334 481.501495,350.639862 477.052490,366.345490 
	C472.187866,383.518280 464.486786,399.582581 455.111450,414.896393 
	C440.813660,438.250671 422.747925,457.838501 400.204773,473.431702 
	C382.139832,485.927338 362.428741,494.795105 341.473206,500.945984 
	C321.712036,506.746307 301.535461,510.354523 280.889709,511.082428 
	C279.572235,511.128876 278.295624,512.333923 277.000000,513.000000 
M218.034332,461.637299 
	C233.980103,453.317169 242.143661,440.315216 242.022446,422.178131 
	C241.916672,406.349152 242.007645,390.518921 241.990143,374.689240 
	C241.988220,372.937805 241.844879,371.186493 241.755035,369.163208 
	C231.373444,369.163208 221.555649,369.351868 211.747543,369.124054 
	C191.121414,368.644897 175.379974,359.438141 164.884766,341.716797 
	C160.908249,335.002380 157.563019,327.895355 154.216095,320.831726 
	C150.462952,312.910767 153.175934,304.394562 160.185089,301.104797 
	C167.551132,297.647552 175.415237,300.520966 179.499557,308.324188 
	C182.507889,314.071747 185.255905,319.955109 188.232605,325.719788 
	C192.096039,333.201691 197.960556,339.390228 206.248184,340.194366 
	C218.032364,341.337738 230.010239,340.484863 242.126587,340.484863 
	C242.126587,324.821655 242.126587,308.926788 242.126587,292.562836 
	C239.301193,292.882141 236.870667,293.212585 234.429825,293.423431 
	C221.208176,294.565552 208.557709,292.439545 196.573959,286.662201 
	C191.933243,284.424927 188.914398,280.806427 188.039642,275.683563 
	C187.160233,270.533417 188.559738,266.061310 192.827942,262.816681 
	C197.614334,259.178162 202.871796,258.513550 208.343735,261.061707 
	C219.509842,266.261536 230.927689,267.229279 243.164505,263.546570 
	C243.164505,261.622620 243.164490,259.819580 243.164490,258.016541 
	C243.164490,237.854523 242.473602,217.659424 243.436859,197.543533 
	C243.971115,186.386810 240.948120,178.351013 232.396194,171.236191 
	C225.894623,165.827179 219.224167,162.458160 210.802017,162.507095 
	C206.975800,162.529327 203.101868,162.692764 199.331726,162.183701 
	C192.548767,161.267807 187.911621,155.381973 188.008041,148.443542 
	C188.103134,141.599243 193.075790,135.198868 199.755005,135.138794 
	C208.846054,135.057037 218.035431,135.584930 227.011917,136.963242 
	C232.398911,137.790405 237.460632,140.735825 243.061142,142.879501 
	C243.061142,125.776047 243.566376,108.813148 242.921295,91.894112 
	C242.255035,74.419464 232.997025,61.944172 216.972366,55.427895 
	C201.195572,49.012402 186.438049,52.206116 173.951691,63.734665 
	C169.978561,67.403030 167.197220,72.362206 163.572021,77.122742 
	C168.445099,79.566338 172.006607,81.343948 175.560501,83.136604 
	C179.273438,85.009506 183.059570,86.755188 186.671188,88.807320 
	C194.273621,93.127014 196.812637,101.680000 192.805450,108.920036 
	C189.122818,115.573746 181.591476,117.423538 173.772064,113.509712 
	C167.374481,110.307556 160.941162,107.160286 154.691727,103.686409 
	C152.048447,102.217087 150.245056,102.529106 148.092422,104.434441 
	C141.008957,110.704201 135.874176,118.287285 134.285538,127.582771 
	C133.490326,132.235779 133.080704,138.072540 135.177078,141.909378 
	C144.509079,158.988953 154.851852,175.514450 164.739471,192.293152 
	C168.733932,199.071533 174.536987,203.291122 182.255432,204.162445 
	C188.514145,204.868973 194.877197,204.663452 201.194748,204.833313 
	C209.594803,205.059158 215.116760,210.460114 215.161774,218.529892 
	C215.207184,226.670685 209.860840,232.247513 201.422623,232.462097 
	C195.602264,232.610107 189.765366,232.149872 183.947540,232.332886 
	C182.040314,232.392868 179.699860,233.125351 178.361404,234.396622 
	C171.477371,240.935150 164.881638,247.776047 158.133606,254.459229 
	C151.650162,260.880402 142.582611,261.314087 136.723648,255.560760 
	C130.851608,249.794540 131.315643,241.655640 138.094406,234.791626 
	C142.767914,230.059296 147.637924,225.521011 152.342606,220.970963 
	C136.416443,204.000519 128.286850,182.665100 115.116364,164.100861 
	C105.389725,176.331543 102.544312,189.363770 107.626091,204.053970 
	C110.673851,212.864319 108.358162,218.169022 100.111931,222.615372 
	C83.402504,231.625122 75.396400,248.762054 78.879761,267.597809 
	C79.534065,271.135864 80.824158,272.652985 84.701355,272.566101 
	C96.026314,272.312408 107.362572,272.357086 118.690834,272.525208 
	C127.102776,272.650024 132.703918,278.287109 132.780518,286.237610 
	C132.856430,294.117798 126.714691,300.091888 118.340134,300.150665 
	C109.509270,300.212646 100.673714,300.027466 91.849564,300.278839 
	C90.023773,300.330841 87.580551,301.341919 86.546783,302.741669 
	C81.395378,309.717072 78.326096,317.646667 78.141426,326.370880 
	C77.892632,338.123871 81.434082,348.415558 90.895149,356.743073 
	C96.982735,350.572113 102.675911,344.739227 108.438560,338.975830 
	C114.860054,332.553497 122.679893,332.259369 128.728989,338.129822 
	C134.690948,343.915710 134.420425,351.875763 127.953621,358.417877 
	C121.511070,364.935425 115.176193,371.576172 108.443932,377.783081 
	C105.312637,380.670044 104.772697,383.635193 105.406776,387.510376 
	C108.848663,408.545105 124.885078,422.684204 146.379059,423.477661 
	C154.743042,423.786407 158.807999,426.806213 161.530914,434.662720 
	C162.292389,436.859833 162.996918,439.102539 164.024673,441.177155 
	C168.914337,451.047485 176.245941,458.228424 186.962524,462.222412 
	C186.962524,452.937683 187.821472,444.193909 186.632187,435.738251 
	C185.946609,430.863800 182.542252,425.978302 179.299713,421.953278 
	C174.934631,416.534821 169.517868,411.968628 164.603165,406.986633 
	C158.398407,400.696838 158.118515,392.457611 163.845337,386.558411 
	C169.328491,380.910217 177.525772,381.034210 183.878006,387.098175 
	C189.058807,392.043915 194.069305,397.171875 199.065582,402.306366 
	C209.971939,413.514526 214.869888,427.103271 214.837494,442.609589 
	C214.825668,448.274902 214.817810,453.940430 214.849838,459.605591 
	C214.858795,461.188385 214.431351,463.395721 218.034332,461.637299 
M359.058899,242.668991 
	C350.464325,236.252716 354.292206,226.482208 352.704956,217.835617 
	C339.997131,217.835617 327.527283,217.881210 315.058350,217.796829 
	C312.585876,217.780106 310.022461,217.593323 307.663971,216.916809 
	C300.818695,214.953369 297.042908,208.749390 297.945923,201.465271 
	C298.717957,195.238113 303.824829,190.295776 310.519867,190.041260 
	C319.007416,189.718628 327.513367,189.870361 336.011444,189.838257 
	C341.468628,189.817642 346.925934,189.834396 352.919067,189.834396 
	C353.035675,171.040894 362.897888,157.425354 374.582764,144.703995 
	C376.383270,142.743805 378.210815,140.757156 379.658752,138.542694 
	C380.596008,137.109360 381.388794,135.226059 381.346588,133.567276 
	C381.124481,124.839096 378.458313,116.836342 372.910217,110.044762 
	C371.795837,108.680565 369.467865,107.654106 367.669281,107.606285 
	C353.849792,107.238846 340.017426,107.330429 326.200012,106.915359 
	C316.716583,106.630478 310.729614,98.239845 313.085663,89.194595 
	C314.706024,82.973839 319.898315,79.172462 327.411804,79.037743 
	C335.023529,78.901276 342.639618,79.007637 350.699951,79.007637 
	C350.297363,77.712059 350.134644,76.920303 349.814819,76.198112 
	C338.835663,51.405521 306.487335,43.976273 285.864502,61.564766 
	C275.126617,70.722771 271.076508,82.512611 270.770691,96.537308 
	C270.517883,108.131241 271.417694,117.995308 281.631500,125.951477 
	C288.282196,131.132126 294.703827,134.837814 303.109344,134.836075 
	C311.108734,134.834412 319.114471,134.653687 327.105682,134.913040 
	C334.458038,135.151657 339.633240,140.605713 339.830231,147.725998 
	C340.030762,154.976501 334.874420,161.664185 327.764374,161.795975 
	C315.797241,162.017746 303.735840,162.118103 291.867828,160.840897 
	C284.837280,160.084305 278.101593,156.587601 271.396423,154.376785 
	C271.396423,186.204544 271.396423,218.529663 271.396423,249.763626 
	C284.655060,248.154190 297.613129,246.156815 310.647766,245.143921 
	C319.772461,244.434845 325.457733,250.267670 325.502319,258.794586 
	C325.545746,267.101227 319.730835,272.702240 310.620361,272.807617 
	C298.316223,272.949982 286.559967,275.600952 275.024597,279.728180 
	C271.707947,280.914795 270.415955,282.453430 270.437500,286.117340 
	C270.598999,313.614563 270.519531,341.113190 270.542175,368.611359 
	C270.543457,370.166962 270.780029,371.722382 270.970520,374.054108 
	C284.286102,367.396912 297.918732,369.139130 311.331329,369.040741 
	C319.594788,368.980103 325.340546,374.684814 325.502319,382.641785 
	C325.661224,390.456268 319.916718,396.467224 311.764221,396.797363 
	C307.438141,396.972504 303.074005,397.134888 298.771576,396.773163 
	C289.680573,396.008942 281.706085,399.068115 274.156342,403.547028 
	C272.897552,404.293823 271.679260,406.288757 271.651672,407.730103 
	C271.521179,414.550781 271.451660,421.411011 272.046417,428.196991 
	C272.704285,435.702515 275.479645,442.508270 280.994476,448.648987 
	C288.413513,441.147369 295.349335,433.967529 302.475006,426.981323 
	C308.294373,421.275879 316.474976,421.308624 322.170441,426.784668 
	C327.608276,432.013184 327.752228,440.108704 322.419891,446.127136 
	C320.654663,448.119507 318.670135,449.917023 316.795532,451.813202 
	C313.257446,455.392120 309.726410,458.977966 305.692657,463.067657 
	C307.602570,463.444275 308.553986,463.744781 309.520508,463.805695 
	C327.614868,464.946228 344.695374,453.884705 350.887360,436.761322 
	C351.738586,434.407257 351.868805,431.524719 351.457031,429.031525 
	C350.182709,421.316132 348.320892,413.698914 346.996613,405.990387 
	C345.550873,397.575165 349.946960,390.468658 357.144806,388.998566 
	C365.450928,387.302124 372.236145,392.073792 374.158630,401.027069 
	C375.606323,407.768921 376.981354,414.526398 378.385437,421.260956 
	C393.234253,418.295746 406.246796,403.411346 408.035614,387.894318 
	C410.315247,368.119324 398.655701,355.017822 378.797516,354.992676 
	C369.632965,354.981049 360.457031,355.166016 351.306274,354.783600 
	C330.338928,353.907227 312.844635,336.215210 312.015808,315.385895 
	C311.660492,306.456512 316.903656,300.076477 325.044739,299.531860 
	C333.186157,298.987213 339.105713,304.605682 339.859619,313.593262 
	C340.562103,321.967865 345.842499,326.935974 354.240479,326.987457 
	C363.239563,327.042603 372.240906,326.890442 381.238251,327.026672 
	C396.421021,327.256531 409.500061,332.688324 420.243896,343.459259 
	C422.810028,346.031921 425.023560,348.956268 427.418274,351.740906 
	C438.746826,337.308838 438.947815,317.448883 427.721863,303.024933 
	C426.449005,301.389465 423.757660,300.018860 421.693451,299.975220 
	C408.700104,299.700439 395.698059,299.860840 382.699005,299.827057 
	C373.284485,299.802612 367.230408,294.361206 367.168732,285.966095 
	C367.107056,277.569122 373.178406,272.019318 382.520630,272.006256 
	C398.186218,271.984344 413.853577,271.877380 429.516235,272.093170 
	C433.082611,272.142273 434.398956,270.970825 435.122467,267.606598 
	C439.039276,249.393005 430.800201,231.349045 413.862671,222.126205 
	C409.101013,219.533386 405.706665,216.006683 405.425934,210.633286 
	C405.259552,207.448227 406.419495,204.129150 407.315491,200.964447 
	C411.355560,186.695068 406.981995,170.174850 396.673370,162.094482 
	C394.380066,164.894791 392.211609,167.827866 389.751282,170.491348 
	C383.407043,177.359299 380.803650,185.358856 381.082062,194.700653 
	C381.429443,206.356186 381.232239,218.030457 381.146057,229.695709 
	C381.051208,242.529022 371.291290,248.576065 359.058899,242.668991 
z"/>
<path fill="#000000" opacity="0.000000" stroke="none" 
	d="
M277.468658,513.000000 
	C278.295624,512.333923 279.572235,511.128876 280.889709,511.082428 
	C301.535461,510.354523 321.712036,506.746307 341.473206,500.945984 
	C362.428741,494.795105 382.139832,485.927338 400.204773,473.431702 
	C422.747925,457.838501 440.813660,438.250671 455.111450,414.896393 
	C464.486786,399.582581 472.187866,383.518280 477.052490,366.345490 
	C481.501495,350.639862 484.789368,334.573334 487.936157,318.537781 
	C493.781799,288.749054 492.743256,258.500977 491.694397,228.472015 
	C490.716827,200.484879 485.758575,172.801910 476.871399,146.108414 
	C469.202087,123.073067 458.570984,101.429985 443.612152,82.109581 
	C428.367554,62.420067 410.279175,45.791660 388.672028,33.440662 
	C370.620239,23.121958 351.313904,15.581567 330.932007,10.970877 
	C314.333466,7.216040 297.652985,4.257361 280.571564,3.972953 
	C267.643829,3.757703 254.680511,2.535389 241.802200,3.168377 
	C217.030823,4.385927 192.458618,7.594115 168.674118,15.093204 
	C149.288452,21.205378 130.856903,29.445578 114.055847,41.009315 
	C89.518028,57.898079 69.978241,79.322975 55.204338,105.259186 
	C44.284431,124.429543 36.895802,144.924469 31.569811,166.147018 
	C28.571625,178.093964 26.997644,190.410614 25.024231,202.599915 
	C20.792191,228.740265 21.477829,255.136093 22.268250,281.411499 
	C22.742495,297.176514 25.633333,312.897766 27.895128,328.572723 
	C30.705437,348.049103 36.438683,366.720856 43.877205,384.955292 
	C51.799046,404.374481 62.124336,422.219116 75.685493,438.245667 
	C87.919350,452.703674 101.477524,465.658600 117.449135,475.907623 
	C139.629944,490.141083 163.671921,499.729736 189.515213,505.124756 
	C204.443512,508.241150 219.382584,510.655029 234.635086,511.058807 
	C235.660751,511.085968 236.666382,511.869751 237.340668,512.650818 
	C158.350449,513.000000 79.700897,513.000000 1.025672,513.000000 
	C1.025672,342.387573 1.025672,171.775162 1.025672,1.081366 
	C171.575256,1.081366 342.150574,1.081366 512.862915,1.081366 
	C512.862915,171.666595 512.862915,342.333282 512.862915,513.000000 
	C434.569519,513.000000 356.253418,513.000000 277.468658,513.000000 
z"/>
<path fill="#3C3C3B" opacity="1.000000" stroke="none" 
	d="
M217.691605,461.796143 
	C214.431351,463.395721 214.858795,461.188385 214.849838,459.605591 
	C214.817810,453.940430 214.825668,448.274902 214.837494,442.609589 
	C214.869888,427.103271 209.971939,413.514526 199.065582,402.306366 
	C194.069305,397.171875 189.058807,392.043915 183.878006,387.098175 
	C177.525772,381.034210 169.328491,380.910217 163.845337,386.558411 
	C158.118515,392.457611 158.398407,400.696838 164.603165,406.986633 
	C169.517868,411.968628 174.934631,416.534821 179.299713,421.953278 
	C182.542252,425.978302 185.946609,430.863800 186.632187,435.738251 
	C187.821472,444.193909 186.962524,452.937683 186.962524,462.222412 
	C176.245941,458.228424 168.914337,451.047485 164.024673,441.177155 
	C162.996918,439.102539 162.292389,436.859833 161.530914,434.662720 
	C158.807999,426.806213 154.743042,423.786407 146.379059,423.477661 
	C124.885078,422.684204 108.848663,408.545105 105.406776,387.510376 
	C104.772697,383.635193 105.312637,380.670044 108.443932,377.783081 
	C115.176193,371.576172 121.511070,364.935425 127.953621,358.417877 
	C134.420425,351.875763 134.690948,343.915710 128.728989,338.129822 
	C122.679893,332.259369 114.860054,332.553497 108.438560,338.975830 
	C102.675911,344.739227 96.982735,350.572113 90.895149,356.743073 
	C81.434082,348.415558 77.892632,338.123871 78.141426,326.370880 
	C78.326096,317.646667 81.395378,309.717072 86.546783,302.741669 
	C87.580551,301.341919 90.023773,300.330841 91.849564,300.278839 
	C100.673714,300.027466 109.509270,300.212646 118.340134,300.150665 
	C126.714691,300.091888 132.856430,294.117798 132.780518,286.237610 
	C132.703918,278.287109 127.102776,272.650024 118.690834,272.525208 
	C107.362572,272.357086 96.026314,272.312408 84.701355,272.566101 
	C80.824158,272.652985 79.534065,271.135864 78.879761,267.597809 
	C75.396400,248.762054 83.402504,231.625122 100.111931,222.615372 
	C108.358162,218.169022 110.673851,212.864319 107.626091,204.053970 
	C102.544312,189.363770 105.389725,176.331543 115.116364,164.100861 
	C128.286850,182.665100 136.416443,204.000519 152.342606,220.970963 
	C147.637924,225.521011 142.767914,230.059296 138.094406,234.791626 
	C131.315643,241.655640 130.851608,249.794540 136.723648,255.560760 
	C142.582611,261.314087 151.650162,260.880402 158.133606,254.459229 
	C164.881638,247.776047 171.477371,240.935150 178.361404,234.396622 
	C179.699860,233.125351 182.040314,232.392868 183.947540,232.332886 
	C189.765366,232.149872 195.602264,232.610107 201.422623,232.462097 
	C209.860840,232.247513 215.207184,226.670685 215.161774,218.529892 
	C215.116760,210.460114 209.594803,205.059158 201.194748,204.833313 
	C194.877197,204.663452 188.514145,204.868973 182.255432,204.162445 
	C174.536987,203.291122 168.733932,199.071533 164.739471,192.293152 
	C154.851852,175.514450 144.509079,158.988953 135.177078,141.909378 
	C133.080704,138.072540 133.490326,132.235779 134.285538,127.582771 
	C135.874176,118.287285 141.008957,110.704201 148.092422,104.434441 
	C150.245056,102.529106 152.048447,102.217087 154.691727,103.686409 
	C160.941162,107.160286 167.374481,110.307556 173.772064,113.509712 
	C181.591476,117.423538 189.122818,115.573746 192.805450,108.920036 
	C196.812637,101.680000 194.273621,93.127014 186.671188,88.807320 
	C183.059570,86.755188 179.273438,85.009506 175.560501,83.136604 
	C172.006607,81.343948 168.445099,79.566338 163.572021,77.122742 
	C167.197220,72.362206 169.978561,67.403030 173.951691,63.734665 
	C186.438049,52.206116 201.195572,49.012402 216.972366,55.427895 
	C232.997025,61.944172 242.255035,74.419464 242.921295,91.894112 
	C243.566376,108.813148 243.061142,125.776047 243.061142,142.879501 
	C237.460632,140.735825 232.398911,137.790405 227.011917,136.963242 
	C218.035431,135.584930 208.846054,135.057037 199.755005,135.138794 
	C193.075790,135.198868 188.103134,141.599243 188.008041,148.443542 
	C187.911621,155.381973 192.548767,161.267807 199.331726,162.183701 
	C203.101868,162.692764 206.975800,162.529327 210.802017,162.507095 
	C219.224167,162.458160 225.894623,165.827179 232.396194,171.236191 
	C240.948120,178.351013 243.971115,186.386810 243.436859,197.543533 
	C242.473602,217.659424 243.164490,237.854523 243.164490,258.016541 
	C243.164490,259.819580 243.164505,261.622620 243.164505,263.546570 
	C230.927689,267.229279 219.509842,266.261536 208.343735,261.061707 
	C202.871796,258.513550 197.614334,259.178162 192.827942,262.816681 
	C188.559738,266.061310 187.160233,270.533417 188.039642,275.683563 
	C188.914398,280.806427 191.933243,284.424927 196.573959,286.662201 
	C208.557709,292.439545 221.208176,294.565552 234.429825,293.423431 
	C236.870667,293.212585 239.301193,292.882141 242.126587,292.562836 
	C242.126587,308.926788 242.126587,324.821655 242.126587,340.484863 
	C230.010239,340.484863 218.032364,341.337738 206.248184,340.194366 
	C197.960556,339.390228 192.096039,333.201691 188.232605,325.719788 
	C185.255905,319.955109 182.507889,314.071747 179.499557,308.324188 
	C175.415237,300.520966 167.551132,297.647552 160.185089,301.104797 
	C153.175934,304.394562 150.462952,312.910767 154.216095,320.831726 
	C157.563019,327.895355 160.908249,335.002380 164.884766,341.716797 
	C175.379974,359.438141 191.121414,368.644897 211.747543,369.124054 
	C221.555649,369.351868 231.373444,369.163208 241.755035,369.163208 
	C241.844879,371.186493 241.988220,372.937805 241.990143,374.689240 
	C242.007645,390.518921 241.916672,406.349152 242.022446,422.178131 
	C242.143661,440.315216 233.980103,453.317169 217.691605,461.796143 
z"/>
<path fill="#3C3C3B" opacity="1.000000" stroke="none" 
	d="
M359.384460,242.871307 
	C371.291290,248.576065 381.051208,242.529022 381.146057,229.695709 
	C381.232239,218.030457 381.429443,206.356186 381.082062,194.700653 
	C380.803650,185.358856 383.407043,177.359299 389.751282,170.491348 
	C392.211609,167.827866 394.380066,164.894791 396.673370,162.094482 
	C406.981995,170.174850 411.355560,186.695068 407.315491,200.964447 
	C406.419495,204.129150 405.259552,207.448227 405.425934,210.633286 
	C405.706665,216.006683 409.101013,219.533386 413.862671,222.126205 
	C430.800201,231.349045 439.039276,249.393005 435.122467,267.606598 
	C434.398956,270.970825 433.082611,272.142273 429.516235,272.093170 
	C413.853577,271.877380 398.186218,271.984344 382.520630,272.006256 
	C373.178406,272.019318 367.107056,277.569122 367.168732,285.966095 
	C367.230408,294.361206 373.284485,299.802612 382.699005,299.827057 
	C395.698059,299.860840 408.700104,299.700439 421.693451,299.975220 
	C423.757660,300.018860 426.449005,301.389465 427.721863,303.024933 
	C438.947815,317.448883 438.746826,337.308838 427.418274,351.740906 
	C425.023560,348.956268 422.810028,346.031921 420.243896,343.459259 
	C409.500061,332.688324 396.421021,327.256531 381.238251,327.026672 
	C372.240906,326.890442 363.239563,327.042603 354.240479,326.987457 
	C345.842499,326.935974 340.562103,321.967865 339.859619,313.593262 
	C339.105713,304.605682 333.186157,298.987213 325.044739,299.531860 
	C316.903656,300.076477 311.660492,306.456512 312.015808,315.385895 
	C312.844635,336.215210 330.338928,353.907227 351.306274,354.783600 
	C360.457031,355.166016 369.632965,354.981049 378.797516,354.992676 
	C398.655701,355.017822 410.315247,368.119324 408.035614,387.894318 
	C406.246796,403.411346 393.234253,418.295746 378.385437,421.260956 
	C376.981354,414.526398 375.606323,407.768921 374.158630,401.027069 
	C372.236145,392.073792 365.450928,387.302124 357.144806,388.998566 
	C349.946960,390.468658 345.550873,397.575165 346.996613,405.990387 
	C348.320892,413.698914 350.182709,421.316132 351.457031,429.031525 
	C351.868805,431.524719 351.738586,434.407257 350.887360,436.761322 
	C344.695374,453.884705 327.614868,464.946228 309.520508,463.805695 
	C308.553986,463.744781 307.602570,463.444275 305.692657,463.067657 
	C309.726410,458.977966 313.257446,455.392120 316.795532,451.813202 
	C318.670135,449.917023 320.654663,448.119507 322.419891,446.127136 
	C327.752228,440.108704 327.608276,432.013184 322.170441,426.784668 
	C316.474976,421.308624 308.294373,421.275879 302.475006,426.981323 
	C295.349335,433.967529 288.413513,441.147369 280.994476,448.648987 
	C275.479645,442.508270 272.704285,435.702515 272.046417,428.196991 
	C271.451660,421.411011 271.521179,414.550781 271.651672,407.730103 
	C271.679260,406.288757 272.897552,404.293823 274.156342,403.547028 
	C281.706085,399.068115 289.680573,396.008942 298.771576,396.773163 
	C303.074005,397.134888 307.438141,396.972504 311.764221,396.797363 
	C319.916718,396.467224 325.661224,390.456268 325.502319,382.641785 
	C325.340546,374.684814 319.594788,368.980103 311.331329,369.040741 
	C297.918732,369.139130 284.286102,367.396912 270.970520,374.054108 
	C270.780029,371.722382 270.543457,370.166962 270.542175,368.611359 
	C270.519531,341.113190 270.598999,313.614563 270.437500,286.117340 
	C270.415955,282.453430 271.707947,280.914795 275.024597,279.728180 
	C286.559967,275.600952 298.316223,272.949982 310.620361,272.807617 
	C319.730835,272.702240 325.545746,267.101227 325.502319,258.794586 
	C325.457733,250.267670 319.772461,244.434845 310.647766,245.143921 
	C297.613129,246.156815 284.655060,248.154190 271.396423,249.763626 
	C271.396423,218.529663 271.396423,186.204544 271.396423,154.376785 
	C278.101593,156.587601 284.837280,160.084305 291.867828,160.840897 
	C303.735840,162.118103 315.797241,162.017746 327.764374,161.795975 
	C334.874420,161.664185 340.030762,154.976501 339.830231,147.725998 
	C339.633240,140.605713 334.458038,135.151657 327.105682,134.913040 
	C319.114471,134.653687 311.108734,134.834412 303.109344,134.836075 
	C294.703827,134.837814 288.282196,131.132126 281.631500,125.951477 
	C271.417694,117.995308 270.517883,108.131241 270.770691,96.537308 
	C271.076508,82.512611 275.126617,70.722771 285.864502,61.564766 
	C306.487335,43.976273 338.835663,51.405521 349.814819,76.198112 
	C350.134644,76.920303 350.297363,77.712059 350.699951,79.007637 
	C342.639618,79.007637 335.023529,78.901276 327.411804,79.037743 
	C319.898315,79.172462 314.706024,82.973839 313.085663,89.194595 
	C310.729614,98.239845 316.716583,106.630478 326.200012,106.915359 
	C340.017426,107.330429 353.849792,107.238846 367.669281,107.606285 
	C369.467865,107.654106 371.795837,108.680565 372.910217,110.044762 
	C378.458313,116.836342 381.124481,124.839096 381.346588,133.567276 
	C381.388794,135.226059 380.596008,137.109360 379.658752,138.542694 
	C378.210815,140.757156 376.383270,142.743805 374.582764,144.703995 
	C362.897888,157.425354 353.035675,171.040894 352.919067,189.834396 
	C346.925934,189.834396 341.468628,189.817642 336.011444,189.838257 
	C327.513367,189.870361 319.007416,189.718628 310.519867,190.041260 
	C303.824829,190.295776 298.717957,195.238113 297.945923,201.465271 
	C297.042908,208.749390 300.818695,214.953369 307.663971,216.916809 
	C310.022461,217.593323 312.585876,217.780106 315.058350,217.796829 
	C327.527283,217.881210 339.997131,217.835617 352.704956,217.835617 
	C354.292206,226.482208 350.464325,236.252716 359.384460,242.871307 
z"/>
</svg>