<?xml version="1.0" encoding="UTF-8" standalone="no"?>
<svg
   id="svg"
   version="1.1"
   width="400"
   height="387.7800407331975"
   viewBox="0, 0, 400,387.7800407331975"
   sodipodi:docname="crond-logo-no-background-2.svg"
   inkscape:version="1.3.2 (091e20e, 2023-11-25)"
   xmlns:inkscape="http://www.inkscape.org/namespaces/inkscape"
   xmlns:sodipodi="http://sodipodi.sourceforge.net/DTD/sodipodi-0.dtd"
   xmlns="http://www.w3.org/2000/svg"
   xmlns:svg="http://www.w3.org/2000/svg">
  <defs
     id="defs1" />
  <sodipodi:namedview
     id="namedview1"
     pagecolor="#ffffff"
     bordercolor="#000000"
     borderopacity="0.25"
     inkscape:showpageshadow="2"
     inkscape:pageopacity="0.0"
     inkscape:pagecheckerboard="0"
     inkscape:deskcolor="#d1d1d1"
     inkscape:zoom="1.0568101"
     inkscape:cx="104.55993"
     inkscape:cy="217.16294"
     inkscape:window-width="1472"
     inkscape:window-height="920"
     inkscape:window-x="0"
     inkscape:window-y="36"
     inkscape:window-maximized="0"
     inkscape:current-layer="svgg" />
  <g
     id="svgg"
     transform="translate(-58.021467,27.352977)">
    <path
       id="path0"
       d="m 291.07522,-20.156246 c -1.942,0.714 -4.292,2.439 -5.465,4.013 -0.603,0.808 -1.185,1.557 -1.293,1.664 -0.68,0.672 -4.204,7.8940003 -5.395,11.0570003 -0.482,1.28 -1.037,2.63099995 -1.233,3.00199995 -0.197,0.37 -0.357,1.014 -0.357,1.43200005 0,0.417 -0.155,0.853 -0.343,0.97 -0.189,0.117 -0.437,0.694 -0.551,1.284 -0.113,0.589 -0.385,1.682 -0.604,2.429 -3.391,11.5819997 -3.998,14.4549997 -4.71,22.3089997 -0.962,10.609 0.084,22.522 2.708,30.844 0.168,0.533 0.521,1.755 0.783,2.715 0.263,0.961 0.61,2.095 0.772,2.522 0.161,0.427 0.852,2.499 1.534,4.605 1.831,5.649 5.867,14.853 8.487,19.353 0.466,0.8 1.214,2.109 1.662,2.909 0.449,0.801 1.081,1.754 1.405,2.12 0.911,1.026 0.386,1.64 -1.884,2.207 -2.89,0.72 -11.954,3.729 -13.983,4.641 -0.923,0.414996 -2.462,1.076996 -3.421,1.469996 -2.83,1.163 -9.122,4.455 -15.134,7.917 -0.533,0.308 -1.057,0.658 -1.164,0.779 -0.106,0.12 -1.066,0.803 -2.133,1.517 -10.803,7.227 -21.332,21.112 -25.932,34.196 -3.374,9.597 -4.312,15.434 -4.294,26.725 0.015,9.588 0.348,12.236 2.637,20.974 3.349,12.782 12.67,33.011 16.994,36.879 0.94,0.841 0.884,1.453 -0.172,1.86 -3.044,1.177 -4.675,1.855 -7.08,2.945 -1.494,0.676 -4.27,1.897 -6.17,2.712 -6.127,2.628 -16.424,8.04 -22.628,11.893 -4.016,2.494 -9.887,7.237 -14.817,11.97 -5.066,4.864 -11.882,13.96 -15.554,20.757 -0.923,1.707 -1.867,3.453 -2.098,3.88 -0.231,0.426 -0.508,0.863 -0.615,0.97 -0.106,0.106 -0.397,0.717 -0.646,1.358 -0.248,0.64 -1.152,2.909 -2.009,5.043 -2.266,5.645 -2.722,7.953 -2.2,11.139 1.241,7.576 9.994,10.314 15.039,4.704 0.694,-0.772 1.443,-1.596 1.664,-1.833 0.566,-0.605 1.509,-2.683 3.127,-6.893 2.891,-7.519 4.639,-9.929 6.189,-8.53 0.203,0.183 1.94,0.988 3.86,1.789 1.921,0.8 6.286,2.821 9.7,4.49 3.414,1.669 9.263,4.515 12.997,6.325 3.734,1.809 9.845,4.771 13.579,6.581 3.734,1.81 8.972,4.332 11.639,5.605 10.837,5.172 13.967,6.789 13.967,7.216 0,0.247 -1.132,2.805 -2.516,5.684 -3.667,7.632 -3.647,11.974 0.072,15.596 6.077,5.918 14.496,1.247 19.022,-10.554 0.45,-1.173 1.771,-4.578 2.936,-7.565 2.611,-6.695 3.883,-10.894 4.937,-16.295 1.926,-9.874 2.013,-10.766 1.798,-18.623 -0.421,-15.427 -2.18,-23.366 -8.294,-37.439 -1.405,-3.235 -5.315,-10.712 -5.975,-11.426 -1.061,-1.148 -0.358,-2.095 1.89,-2.546 2.825,-0.568 13.201,-3.528 15.034,-4.29 0.427,-0.177 1.625,-0.597 2.663,-0.934 6.932,-2.247 20.809,-9.959 26.43,-14.687 4.973,-4.183 11.441,-11.075 14.581,-15.536 2.406,-3.42 2.683,-3.892 4.458,-7.613 2.48,-5.197 2.942,-6.302 3.973,-9.505 2.681,-8.328 2.99,-10.632 2.966,-22.115 -0.018,-9.062 -0.11,-10.482 -0.905,-13.967 -0.486,-2.134 -0.977,-4.449 -1.089,-5.144 -0.112,-0.696 -0.36,-1.361 -0.549,-1.478 -0.19,-0.117 -0.346,-0.555 -0.346,-0.972 0,-0.417 -0.154,-1.061 -0.342,-1.432 -0.359,-0.704 -1.104,-2.453 -1.61,-3.777 -0.163,-0.427 -0.562,-1.387 -0.888,-2.134 -0.325,-0.747 -0.952,-2.277 -1.394,-3.401 -0.716,-1.822 -3.467,-7.246 -6.146,-12.118 -1.369,-2.49 -4.283,-7.286 -5.582,-9.187 -0.61,-0.892 -1.108,-1.736 -1.108,-1.877 0,-0.14 -0.561,-1.035 -1.247,-1.99 -1.284,-1.788 -1.152,-2.443 0.497,-2.459 0.524,-0.005 3.169,-0.684 7.539,-1.935 2.41,-0.691 12.41,-4.196 15.519,-5.439996 5.995,-2.4 15.92,-7.192 16.877,-8.15 0.107,-0.106 0.98,-0.616 1.94,-1.131 1.568,-0.843 8.831,-5.697 9.311,-6.223 0.107,-0.117 1.205,-0.981 2.441,-1.921 14.341,-10.898 26.143,-32.015 26.343,-47.134 0.088,-6.659 -2.792,-9.92 -8.769,-9.93 -4.389,-0.007 -6.93,2.424 -8.822,8.443 -0.653,2.076 -1.448,4.385 -1.766,5.132 -0.554,1.298 -2.822,5.889 -3.026,6.128 -0.054,0.063 -1.259,-0.417 -2.677,-1.067 -1.419,-0.65 -2.639,-1.181 -2.711,-1.181 -0.121,0 -6.59,-3.13 -25.649,-12.409 -6.827,-3.323 -12.231,-5.914 -19.011,-9.114 -4.688,-2.213 -10.599,-5.047 -18.429,-8.837 -4.161,-2.0139997 -8.176,-3.9299997 -8.923,-4.2579997 -0.747,-0.327 -2.023,-0.891 -2.836,-1.253 -0.813,-0.362 -1.578,-0.918 -1.701,-1.236 -0.249,-0.65 -0.374,-0.353 3.21,-7.589 3.87,-7.8140003 3.912,-11.6650003 0.168,-15.3870003 -2.582,-2.567 -5.988,-3.4 -9.152,-2.238 m -57.27,6.268 c -0.147,0.147 -2.416,0.426 -5.043,0.622 -4.668,0.348 -7.642,0.709 -11.954,1.451 -1.174,0.202 -3.181,0.544 -4.462,0.76 -11.325,1.9100003 -26.45,6.4240003 -35.429,10.57400025 -1.349,0.623 -2.518,1.133 -2.598,1.133 -0.237,0 -10.302,4.96300005 -12.409,6.12000005 -8.838,4.8489997 -17.832,11.0209997 -25.753,17.6729997 -3.319,2.787 -3.722,3.018 -4.577,2.628 -6.295,-2.868 -15.082,6.574 -14.285,15.351 0.245,2.698 0.219,2.813 -0.864,3.879 -6.472,6.37 -20.829997,28.964 -24.676997,38.83 -0.535,1.371 -0.818,1.649 -1.685,1.649 -3.886,0 -7.062,3.264 -8.483,8.718 -1.888,7.247996 7.02,14.326996 13.98,11.109996 4.896997,-2.263 7.189997,-9.236996 4.671997,-14.209996 l -0.953997,-1.885 1.047997,-1.964 c 0.576,-1.08 1.137,-2.051 1.245,-2.157 0.108,-0.107 0.515,-0.893 0.903,-1.746 0.613,-1.346 2.005,-3.838 6.039,-10.815 1.956,-3.383 7.652,-11.396 11.574,-16.284 2.252,-2.806 4.285,-5.404 4.518,-5.772 0.33,-0.524 0.748,-0.618 1.912,-0.432 1.722,0.276 3.763,-0.265 7.095,-1.879 4.777,-2.314 5.98,-4.429 5.989,-10.534 0.004,-2.17 0.135,-4.129 0.291,-4.354 0.37,-0.531 5.985,-5.019 8.457,-6.759 1.053,-0.741 3.138,-2.208 4.631,-3.259 6.196,-4.357 21.683,-13.045 23.256,-13.045 0.333,0 0.605,-0.175 0.605,-0.388 0,-0.213 0.245,-0.388 0.545,-0.388 0.3,0 1.217,-0.345 2.037,-0.7659997 3.838,-1.97 9.122,-3.893 20.114,-7.321 2.668,-0.832 10.74,-2.53900005 14.937,-3.15900005 1.174,-0.173 4.491,-0.66399995 7.372,-1.09099995 9.347,-1.385 14.892,-1.753 22.508,-1.494 6.558,0.224 9.238,0.422 16.733,1.239 3.723,0.406 4.477,0.126 5.016,-1.864 0.245,-0.905 0.587,-1.994 0.76,-2.421 2.185,-5.3800003 2.189,-5.3710003 -3.31,-6.4370003 -5.349,-1.038 -28.987,-2.08 -29.754,-1.313 m -16.609,32.461 c -3.728,0.178 -6.673,0.546 -8.729,1.09 -1.707,0.452 -3.541,0.926 -4.074,1.053 -4.025,0.961 -12.933,6.63 -17.912,11.398 -1.302,1.248 -1.693,1.401 -3.702,1.457 -3.85,0.107 -6.11,0.472 -12.916,2.089 -1.813,0.431 -3.463,0.936 -3.666,1.122 -0.203,0.187 -0.685,0.339 -1.071,0.339 -2.824,0 -11.659,5.471 -16.242,10.057 -4.213,4.215 -9.283,12.3 -9.283,14.803 0,0.274 -0.162,1.033 -0.361,1.689 -0.199,0.655 -0.562,1.89 -0.806,2.743 -0.245,0.854 -0.562,4.501 -0.705,8.106 -0.209,5.242 -0.378,6.616 -0.843,6.862 -0.32,0.169 -2.416,1.165 -4.656,2.213 -18.25,8.539 -26.983,27.749996 -22.22,48.877996 0.148,0.656 -0.234,1.353 -1.497,2.734 -3.106,3.395 -3.734,4.219 -5.703,7.491 -8.142997,13.531 -9.438997,28.557 -3.836997,44.482 0.514,1.462 4.695997,8.889 5.291997,9.399 0.125,0.107 0.961,1.16 1.858,2.341 2.258,2.974 5.688,6.191 8.628,8.091 l 2.478,1.601 0.062,7.854 0.062,7.853 1.456,4.268 c 2.56,7.502 6.849,14.883 10.675,18.37 1.504,1.37 7.125,5.556 7.79,5.801 0.32,0.118 0.669,0.332 0.776,0.475 0.269,0.362 5.913,2.469 8.729,3.259 1.28,0.359 2.864,0.818 3.519,1.02 0.656,0.202 1.633,0.367 2.173,0.367 1.554,0 3.425,0.795 3.425,1.455 0,2.942 10.871,14.64 12.879,13.859 0.455,-0.177 2.592,-3.372 4.825,-7.213 l 0.826,-1.422 -3.048,-3.031 c -5.2,-5.169 -7.325,-10.392 -7.325,-18.003 0,-6.069 0.426,-7.535 3.865,-13.305 2.431,-4.078 -3.19,-8.874 -6.784,-5.79 -2.008,1.722 -6.014,8.415 -6.014,10.047 0,0.287 -0.154,0.826 -0.342,1.197 -0.709,1.397 -1.21,4.475 -1.21,7.445 0,3.562 -0.024,3.592 -2.329,2.957 -11.39,-3.138 -20.359,-11.898 -22.578,-22.05 -1.126,-5.156 -1.382,-10.786 -0.656,-14.449 0.211,-1.067 0.481,-2.996 0.599,-4.286 l 0.215,-2.347 -1.584,-1.048 c -0.871,-0.577 -1.685,-1.048 -1.808,-1.048 -2.456,0 -11.674,-9.582 -15.07,-15.664 -8.241,-14.761 -2.022,-39.169 12.077,-47.395 1.589,-0.928 1.579,-1.113 -0.24,-4.748 -4.653,-9.295 -3.904,-19.16 2.17,-28.578 3.232,-5.012996 7.837,-8.831996 13.429,-11.137996 3.704,-1.527 3.773,-1.508 5.231,1.447 4.801,9.736996 13.626,15.454996 25.093,16.259996 9.426,0.661 11.13,-8.673 1.94,-10.626 -13.987,-2.973996 -20.729,-9.422996 -21.946,-20.993996 -1.695,-16.112 9.445,-29.849 27.353,-33.728 4.97,-1.077 5.415,-0.739 3.659,2.782 -0.185,0.371 -0.336,1.274 -0.336,2.007 0,0.734 -0.204,2.215 -0.453,3.293 -0.456,1.978 -0.26,4.017 0.93,9.665 0.91,4.323 4.849,6.504 7.551,4.183 l 1.089,-0.936 0.219,-7.115 c 0.248,-8.039 0.98,-10.749 4.285,-15.863 12.263,-18.973 44.146,-18.987 50.975,-0.023 0.354,0.983 0.791,2.137 0.972,2.564 0.825,1.949 0.931,4.615 1.138,28.616 l 0.219,25.512996 2.134,-1.542996 c 1.173,-0.849 2.263,-1.549 2.421,-1.556 0.674,-0.029 5.717,-3.537 6.091,-4.237 1.099,-2.052 0.378,-45.597 -0.792,-47.855 -0.192,-0.371 -0.349,-0.922 -0.349,-1.225 0,-1.006 -3.407,-8.702 -4.657,-10.518 -7.419,-10.785 -18.197,-15.585 -33.364,-14.861 m 78.237,0.297 c 0.82,0.418 3.412,1.656 5.759,2.751 2.347,1.095 5.228,2.44 6.402,2.987 1.173,0.548 4.403,2.082 7.177,3.409 2.774,1.327 6.091,2.895 7.372,3.485 1.28,0.589 5.907,2.812 10.281,4.939 4.374,2.127 8.914,4.303 10.087,4.834 4.814,2.181 16.882,8.105 24.437,11.994 4.716,2.427 4.716,2.376 -0.073,7.066 -7.464,7.311 -11.838,10.172 -13.691,8.955 -0.642,-0.421 -1.953,-1.13 -2.913,-1.576 -3.713,-1.723 -7.333,-3.515 -11.13,-5.511 -2.174,-1.142 -4.531,-2.308 -5.238,-2.591 -0.707,-0.282 -8.094,-3.863 -16.416,-7.957 -8.322,-4.095 -17.401,-8.529 -20.175,-9.854 -2.774,-1.325 -5.441,-2.603 -5.927,-2.84 -1.443,-0.703 -1.487,-6.048 -0.108,-13.091 0.188,-0.96 0.544,-2.793 0.791,-4.074 0.817,-4.228 0.813,-4.225 3.365,-2.926 m -1.159,35.497 c 0.604,0.31 2.582,1.246 4.396,2.081 8.411,3.868 7.407,3.387 28.71,13.748 4.161,2.024 8.264,3.998 9.118,4.387 4.726,2.154 4.638,2.279 -4.639,6.57 -3.513,1.625 -5.873,2.392 -15.633,5.079 -1.227,0.338 -2.534,0.774 -2.904,0.97 -0.371,0.196 -0.997,0.356 -1.391,0.356 -0.394,0 -0.836,0.119 -0.982,0.266 -0.632,0.632 -3.141,1.237 -3.589,0.865 -2.606,-2.163 -11.79,-21.765 -14.325,-30.578 -1.248,-4.34 -1.056,-4.921 1.239,-3.744 m -87.844,22.628 c -2.379,1.832 -1.856,4.33 1.603,7.653 13.209,12.689 3.3,37.858996 -16.443,41.768996 -6.932,1.373 -9.652,3.63 -9.201,7.634 1.145,10.159 24.539,0.479 34.086,-14.105 7.753,-11.841 8.967,-25.927996 3.017,-35.004996 -4.557,-6.955 -10.027,-10.282 -13.062,-7.946 m 194.471,1.284 c -5.893,3.097 -7.519,6.163 -6.67,12.576 0.521,3.932 1.305,5.517 3.825,7.726 1.601,1.403 2.217,1.665996 4.371,1.866996 1.172,0.11 1.134,0.046 2.166,3.598 1.361,4.684 1.533,5.442 2.651,11.64 0.843,4.677 1.872,11.98 2.159,15.325 1.143,13.327 1.425,25.398 0.819,35.098 l -0.277,4.429 -1.219,0.268 c -0.67,0.147 -1.62,0.531 -2.111,0.853 -0.984,0.644 -1.194,0.517 -4.363,-2.627 -3.145,-3.121 -12.392,-11.211 -16.936,-14.817 -5.133,-4.073 -5.003,-3.906 -4.421,-5.667 0.472,-1.432 0.417,-3.313 -0.179,-6.133 -1.296,-6.124 -10.373,-9.397 -15.148,-5.461 -5.382,4.436 -4.304,15.699 1.646,17.192 1.141,0.287 1.478,1.542 0.936,3.493 -0.229,0.825 -0.417,2.141 -0.418,2.925 -0.002,0.784 -0.167,2.268 -0.369,3.298 -0.202,1.03 -0.563,3.356 -0.804,5.17 -1.356,10.227 -5.932,27.878 -9.103,35.111 -0.28,0.641 -1.337,3.085 -2.348,5.432 -1.01,2.347 -2.315,5.141 -2.898,6.208 -0.584,1.067 -1.722,3.162 -2.53,4.655 -2.531,4.68 -8.008,12.609 -8.71,12.609 -0.148,0 -1.242,-0.195 -2.432,-0.434 -1.822,-0.366 -2.361,-0.335 -3.422,0.194 -0.693,0.346 -1.427,0.628 -1.631,0.628 -0.204,0 -1.223,0.713 -2.264,1.585 -3.7,3.098 -4.935,7.621 -3.651,13.374 0.241,1.082 0.083,1.339 -1.806,2.944 -6.863,5.83 -19.846,14.703 -23.198,15.854 -3.238,1.113 -4.672,2.767 -4.672,5.392 v 1.589 h 1.754 c 3.113,0 21.544,-10.752 24.628,-14.367 0.107,-0.125 0.559,-0.479 1.005,-0.787 0.447,-0.308 2.057,-1.675 3.579,-3.037 4.043,-3.621 3.83,-3.518 6.086,-2.92 8.911,2.361 13.777,-2.973 11.848,-12.987 -0.728,-3.775 -0.551,-4.662 1.454,-7.298 1.638,-2.154 5.348,-8.125 7.305,-11.757 0.402,-0.747 0.862,-1.416 1.022,-1.487 0.16,-0.071 0.291,-0.283 0.291,-0.471 0,-0.188 0.926,-2.225 2.057,-4.526 1.132,-2.302 2.807,-6.105 3.722,-8.453 0.916,-2.347 1.805,-4.617 1.976,-5.043 0.726,-1.814 3.071,-9.37 4.276,-13.773 0.659,-2.409 2.191,-10.633 3.072,-16.489 0.526,-3.498 0.72,-5.248 1.168,-10.542 0.374,-4.412 0.888,-5.947 1.992,-5.947 0.719,0 8.079,6.122 20.597,17.133 0.567,0.499 1.786,1.519 2.707,2.266 4.055,3.286 3.943,3.123 3.266,4.74 -1.488,3.555 -0.308,9.882 2.383,12.77 l 0.952,1.022 -0.629,2.664 c -0.346,1.465 -0.954,3.799 -1.352,5.186 -0.398,1.387 -1.024,3.569 -1.392,4.849 -1.212,4.226 -1.755,5.741 -4.312,12.019 -2.494,6.126 -3.405,8.059 -7.594,16.109 -6.255,12.02 -15.681,25.062 -25.77,35.658 l -3.163,3.321 -1.789,-0.479 c -7.435,-1.988 -15.485,4.627 -14.827,12.184 0.202,2.315 0.174,2.407 -1.007,3.298 -0.668,0.504 -1.663,1.283 -2.212,1.732 -1.818,1.485 -10.661,7.388 -12.831,8.564 -1.173,0.637 -2.919,1.654 -3.88,2.261 -3.125,1.976 -14.04,7.029 -19.204,8.891 -2.774,1.001 -5.347,1.984 -5.718,2.186 -0.37,0.202 -1.014,0.367 -1.432,0.367 -0.417,0 -0.866,0.175 -0.998,0.388 -0.131,0.213 -0.566,0.388 -0.965,0.388 -2.998,0 -5.843,8.476 -3.187,9.496 1.349,0.518 13.75,-3.098 19.283,-5.622 0.854,-0.39 2.338,-1.025 3.298,-1.411 1.73,-0.697 12.131,-5.911 14.743,-7.392 3.759,-2.13 15.363,-9.886 17.929,-11.983 0.913,-0.746 1.246,-0.809 2.522,-0.477 5.255,1.368 8.064,1.195 12.076,-0.745 4.063,-1.965 6.831,-8.646 5.326,-12.856 -0.787,-2.2 -0.85,-1.949 0.984,-3.943 13.746,-14.948 22.584,-27.679 30.56,-44.02 6.348,-13.007 9.688,-22.141 12.469,-34.097 0.799,-3.436 1.076,-3.802 3.353,-4.447 9.412,-2.662 11.772,-16.144 3.785,-21.625 -0.802,-0.551 -0.81,-0.714 -0.641,-13.065 0.126,-9.232 0.007,-14.692 -0.456,-20.849 -0.867,-11.545 -1.393,-15.323 -4.054,-29.098 -0.349,-1.805 -2.022,-9.743996 -2.126,-10.086996 -0.032,-0.107 0.764,-0.953 1.77,-1.879 9.343,-8.611 -1.549,-25.282 -12.692,-19.427 m -100.695,34.466996 c 0.219,0.41 0.629,0.977 0.91,1.261 2.756,2.781 9.508,14.878 15.012,26.896 2.133,4.655 1.59,4.68 -6.401,0.289 -0.667,-0.366 -21.316,-10.519 -32.88,-16.167 -2.081,-1.016 -3.78,-1.962 -3.777,-2.102 0.019,-0.796 3.349,-2.746 7.422,-4.347 1.142,-0.45 2.688,-1.083 3.435,-1.408 4.749,-2.068 13.614,-5.103 15.021,-5.144 0.472,-0.013 1.038,0.311 1.258,0.722 m -39.261,18.219 c 0.371,0.189 1.11,0.529 1.644,0.756 0.533,0.228 3.039,1.383 5.568,2.568 2.529,1.184 4.684,2.153 4.789,2.153 0.104,0 3.584,1.659 7.734,3.686 4.149,2.027 7.608,3.686 7.687,3.686 0.079,0 2.385,1.067 5.126,2.372 2.741,1.305 6.642,3.162 8.669,4.126 4.299,2.045 12.263,5.951 13.385,6.566 0.976,0.534 2.411,1.164 3.763,1.654 2.52,0.911 2.907,14.772 0.626,22.43 -0.488,1.638 -1.037,1.609 -4.812,-0.249 -1.688,-0.831 -4.465,-2.163 -6.172,-2.961 -5.317,-2.485 -21.152,-10.194 -43.065,-20.964 -6.829,-3.356 -14.031,-6.857 -16.004,-7.78 -4.435,-2.073 -4.435,-2.121 0.058,-8.115 5.941,-7.925 9.186,-10.853 11.004,-9.928 m -105.885,7.033 c -5.313,0.909 -12.885,6.145 -16.761,11.59 -7.534,10.585 -6.1,25.74 3.373,35.642 5.509,5.758 11.48,0.608 6.687,-5.768 -9.177,-12.208 -4.784,-27.476 8.754,-30.421 5.552,-1.207 6.931,-2.352 6.931,-5.753 0,-4.065 -3.635,-6.205 -8.984,-5.29 m 96.159,25.623 c 2.661,1.269 4.933,2.307 5.05,2.307 0.117,0 2.439,1.129 5.16,2.509 2.721,1.381 5.798,2.849 6.836,3.264 1.039,0.414 4.246,1.884 7.127,3.265 2.881,1.382 6.198,2.948 7.371,3.481 10.496,4.77 29.537,14.352 30.01,15.102 0.859,1.361 -6.941,9.119 -13.71,13.636 -2.572,1.717 -2.916,1.704 -6.406,-0.241 -1.366,-0.761 -8.081,-4.042 -10.088,-4.928 -1.067,-0.472 -6.479,-3.092 -12.027,-5.823 -5.548,-2.731 -13.23,-6.476 -17.071,-8.322 -12.419,-5.967 -12.745,-6.147 -13.038,-7.201 -0.791,-2.842 -0.132,-19.612 0.815,-20.753 0.507,-0.611 2.386,0.087 9.971,3.704 m -80.009,12.757 c -1.766,0.787 -2.511,2.05 -2.511,4.259 0,2.633 1.566,3.955 5.591,4.719 14.328,2.722 20.533,20.513 11.501,32.981 -2.827,3.903 0.789,8.583 4.945,6.401 8.337,-4.376 11.454,-20.775 6.171,-32.455 -3.518,-7.776 -9.887,-13.341 -17.732,-15.491 -0.961,-0.264 -2.252,-0.633 -2.871,-0.822 -1.666,-0.507 -3.338,-0.373 -5.094,0.408 m 78.492,22.765 c 4.99,2.369 12.584,6.032 21.616,10.428 4.055,1.974 8.209,3.98 9.232,4.458 1.024,0.479 1.804,1.069 1.735,1.312 -0.3,1.047 -7.363,3.979 -14.653,6.082 -1.6,0.462 -3.259,0.984 -3.685,1.159 -4.108,1.691 -5.668,1.429 -7.429,-1.249 -5.165,-7.855 -12.278,-22.465 -11.528,-23.678 0.319,-0.516 0.834,-0.353 4.712,1.488 m 3.233,54.273 c 1.821,2.978 4.998,9.258 4.998,9.88 0,0.288 0.946,2.794 2.68,7.094 2.901,7.197 2.841,7.566 -0.955,5.896 -1.269,-0.559 -2.918,-1.283 -3.665,-1.61 -0.747,-0.326 -4.326,-2.038 -7.953,-3.804 -11.037,-5.372 -16.975,-8.223 -19.011,-9.128 -1.929,-0.857 -2.623,-1.449 -2.303,-1.966 0.418,-0.677 9.421,-4.698 13.772,-6.151 2.654,-0.886 5.088,-1.718 5.408,-1.848 5.06,-2.054 4.725,-2.132 7.029,1.637 m -31.983,17.393 c 3.589,1.777 8.446,4.15 10.793,5.272 5.99,2.863 11.482,5.517 21.26,10.273 4.651,2.262 8.6,4.113 8.774,4.113 2.842,0 3.109,6.035 0.847,19.114 -0.631,3.653 -0.51,3.624 -5.272,1.283 -3.448,-1.696 -10.21,-4.907 -14.746,-7.004 -4.081,-1.886 -8.481,-4.043 -10.281,-5.039 -0.96,-0.531 -4.889,-2.466 -8.729,-4.3 -3.841,-1.834 -9.777,-4.706 -13.192,-6.382 -3.414,-1.676 -7.745,-3.751 -9.624,-4.612 -2.98,-1.365 -3.367,-1.653 -3.033,-2.259 0.673,-1.219 6.737,-6.934 9.748,-9.187 1.6,-1.198 3.12,-2.352 3.378,-2.565 0.258,-0.213 0.651,-0.387 0.873,-0.387 0.222,0 0.404,-0.148 0.404,-0.329 0,-0.303 1.399,-1.136 2.01,-1.197 0.146,-0.014 3.201,1.428 6.79,3.206"
       stroke="none"
       fill="#302f63"
       fill-rule="evenodd"
       style="fill:#242424;fill-opacity:1" />
    <path
       d="m -103.9883,67.643117 c -0.9637,-0.129703 -0.83639,1.010628 0.0996,4.265625 2.535,8.812991 11.718222,28.415128 14.32422,30.578128 0.447999,0.372 2.957844,-0.23324 3.589843,-0.86524 0.146,-0.147 0.588423,-0.26562 0.982422,-0.26562 0.394,0 1.019625,-0.15947 1.390625,-0.35547 0.37,-0.196 1.677298,-0.6327 2.904297,-0.9707 9.75999,-2.687006 12.119816,-3.453131 15.632813,-5.078129 9.27699,-4.290996 9.364667,-4.416315 4.638671,-6.570313 -0.853999,-0.389 -4.958144,-2.362721 -9.11914,-4.386719 -21.302979,-10.360989 -20.297993,-9.88005 -28.708985,-13.748047 -1.813996,-0.834999 -3.792486,-1.772031 -4.396486,-2.082031 -0.57375,-0.29425 -1.01665,-0.47825 -1.33789,-0.521484 z"
       style="fill:#242424;fill-rule:evenodd"
       id="path54" />
    <path
       d="m -103.9883,67.643117 c 0.32124,0.04323 0.76414,0.227234 1.33789,0.521484 0.604,0.31 2.58249,1.247032 4.396486,2.082031 8.410992,3.867997 7.406006,3.387058 28.708985,13.748047 4.160996,2.023998 8.265141,3.997719 9.11914,4.386719 4.725996,2.153998 4.638319,2.279317 -4.638671,6.570313 -3.512997,1.624998 -5.872823,2.391123 -15.632813,5.078129 -1.226999,0.338 -2.534297,0.7747 -2.904297,0.9707 -0.371,0.196 -0.996625,0.35547 -1.390625,0.35547 -0.393999,0 -0.836422,0.11862 -0.982422,0.26562 -0.631999,0.632 -3.141844,1.23724 -3.589843,0.86524 -2.605998,-2.163 -11.78922,-21.765137 -14.32422,-30.578128 -0.936,-3.254997 -1.06331,-4.395328 -0.0996,-4.265625 z"
       style="fill:#242424;fill-rule:evenodd"
       id="path53" />
    <path
       d="m -103.44728,-6.8588364 c -0.8046,0.045203 -1.61135,0.2114534 -2.40235,0.5019532 -1.94199,0.7139992 -4.29184,2.4377203 -5.46484,4.0117187 -0.603,0.8079992 -1.18497,1.55706261 -1.29297,1.6640625 -0.68,0.67199933 -4.20353,7.8936434 -5.39453,11.056641 -0.482,1.279998 -1.03642,2.630953 -1.23242,3.001953 -0.197,0.369999 -0.35742,1.015594 -0.35742,1.433594 0,0.416999 -0.15575,0.85175 -0.34375,0.96875 -0.189,0.116999 -0.43679,0.695156 -0.55079,1.285156 -0.113,0.588999 -0.38451,1.680735 -0.60351,2.427734 -3.391,11.581989 -3.99894,14.456555 -4.71094,22.310547 -0.962,10.608989 0.085,22.521758 2.70899,30.84375 0.168,0.532999 0.5212,1.754845 0.7832,2.714844 0.263,0.960999 0.60948,2.094485 0.77148,2.521484 0.161,0.427 0.85121,2.499471 1.53321,4.605469 1.83099,5.648994 5.86828,14.851563 8.48828,19.35156 0.466,0.8 1.21411,2.11016 1.66211,2.91016 0.449,0.801 1.08029,1.75314 1.40429,2.11914 0.911,1.026 0.38524,1.64003 -1.88476,2.20703 -2.89,0.72 -11.95343,3.73058 -13.98242,4.64258 -0.923,0.41499 -2.46093,1.07575 -3.41993,1.46875 -2.82999,1.163 -9.12277,4.45597 -15.13476,7.91797 -0.533,0.308 -1.05706,0.65829 -1.16406,0.77929 -0.106,0.12 -1.06582,0.80163 -2.13282,1.51563 -10.80299,7.22699 -21.33164,21.11328 -25.93164,34.19726 -3.37399,9.597 -4.31292,15.43363 -4.29492,26.72461 0.015,9.58799 0.34772,12.23467 2.63672,20.97266 3.349,12.78199 12.67015,33.01091 16.99414,36.87891 0.94,0.841 0.88412,1.45433 -0.17187,1.86132 -3.044,1.177 -4.67508,1.85532 -7.08008,2.94532 -1.494,0.676 -4.26993,1.89594 -6.16992,2.71093 -6.127,2.628 -16.42296,8.03959 -22.62696,11.89258 -4.01599,2.494 -9.88836,7.23771 -14.81836,11.97071 -5.06599,4.86399 -11.88073,13.96082 -15.55273,20.75781 -0.923,1.707 -1.86666,3.45191 -2.09766,3.8789 -0.231,0.426 -0.50823,0.86371 -0.61523,0.97071 -0.106,0.106 -0.39749,0.71642 -0.64649,1.35742 -0.248,0.64 -1.15276,2.90897 -2.00976,5.04297 -2.266,5.64499 -2.72122,7.95267 -2.19922,11.13867 1.241,7.57599 9.99407,10.31507 15.03906,4.70508 0.694,-0.772 1.44306,-1.59699 1.66406,-1.83399 0.566,-0.605 1.50896,-2.68258 3.12696,-6.89257 2.89099,-7.519 4.63945,-9.9283 6.18945,-8.5293 0.203,0.183 1.93938,0.98806 3.85938,1.78906 1.92099,0.8 6.28522,2.82124 9.69921,4.49024 3.414,1.66899 9.26406,4.51422 12.99805,6.32421 3.734,1.809 9.84413,4.77008 13.57813,6.58008 3.73399,1.81 8.97167,4.33247 11.63867,5.60547 10.83699,5.172 13.96875,6.7898 13.96875,7.2168 0,0.247 -1.13358,2.8046 -2.51758,5.68359 -3.667,7.63199 -3.64673,11.97371 0.0723,15.59571 6.07699,5.91799 14.49548,1.2463 19.02148,-10.55469 0.45,-1.173 1.7725,-4.57746 2.9375,-7.56446 2.611,-6.69499 3.88155,-10.89392 4.93555,-16.29492 1.926,-9.87399 2.01382,-10.76605 1.79883,-18.62304 -0.421,-15.42699 -2.18093,-23.36647 -8.29493,-37.43946 -1.405,-3.23499 -5.31461,-10.71178 -5.97461,-11.42578 -1.061,-1.148 -0.35737,-2.09392 1.89063,-2.54492 2.825,-0.568 13.2002,-3.52902 15.0332,-4.29102 0.427,-0.177 1.62607,-0.59659 2.66406,-0.93359 6.932,-2.247 20.808698,-9.9595 26.429692,-14.6875 4.972995,-4.183 11.440081,-11.07416 14.580078,-15.53516 2.405998,-3.41999 2.683986,-3.89228 4.458985,-7.61328 2.479997,-5.19699 2.941657,-6.30286 3.972656,-9.50586 2.680997,-8.32799 2.990797,-10.63029 2.966797,-22.11328 -0.018,-9.06199 -0.111251,-10.48375 -0.90625,-13.96875 -0.486,-2.134 -0.975891,-4.44758 -1.087891,-5.14258 -0.112,-0.696 -0.359828,-1.36151 -0.548828,-1.47851 -0.19,-0.117 -0.345703,-0.55566 -0.345703,-0.97266 0,-0.417 -0.15575,-1.06064 -0.34375,-1.43164 -0.359,-0.704 -1.103376,-2.45334 -1.609375,-3.77734 -0.163,-0.427 -0.562672,-1.38582 -0.888672,-2.13281 -0.325,-0.747 -0.950579,-2.27835 -1.392578,-3.40235 -0.716,-1.822 -3.467487,-7.24519 -6.146485,-12.11719 -1.368998,-2.48999 -4.283032,-7.2865 -5.582031,-9.1875 -0.609999,-0.89199 -1.107422,-1.73595 -1.107422,-1.87695 0,-0.14 -0.562047,-1.03523 -1.248047,-1.99023 -1.283998,-1.788 -1.150951,-2.44299 0.498047,-2.45899 0.524,-0.005 3.169067,-0.68259 7.539063,-1.93359 2.409997,-0.691 12.408581,-4.19742 15.517578,-5.44141 5.994994,-2.4 15.919954,-7.19044 16.876953,-8.14844 0.107,-0.106 0.981407,-0.61781 1.941406,-1.13281 1.567999,-0.843 8.830548,-5.696654 9.310547,-6.222654 0.107,-0.117 1.205408,-0.979923 2.441406,-1.919922 14.3409855,-10.897989 26.1417975,-32.01578 26.3417973,-47.134765 0.088,-6.658994 -2.7905842,-9.919688 -8.7675782,-9.929688 -4.3889956,-0.007 -6.9302671,2.424366 -8.8222651,8.44336 -0.653,2.075997 -1.447626,4.38386 -1.765625,5.130859 -0.554,1.297999 -2.823344,5.889906 -3.027344,6.128906 -0.054,0.063 -1.257783,-0.416407 -2.675781,-1.066406 -1.418999,-0.649999 -2.638938,-1.181641 -2.710938,-1.181641 -0.121,0 -6.59141,-3.129212 -25.650391,-12.408203 -6.826993,-3.322997 -12.229772,-5.915237 -19.009765,-9.115234 -4.687996,-2.212998 -10.599696,-5.045942 -18.429688,-8.835938 -4.160996,-2.013998 -8.176829,-3.929813 -8.923828,-4.257812 -0.746999,-0.327 -2.022938,-0.891907 -2.835937,-1.253907 -0.813,-0.361999 -1.576216,-0.918328 -1.699223,-1.236328 -0.249,-0.649999 -0.37501,-0.351897 3.208988,-7.58789 3.869996,-7.8139926 3.911965,-11.66667589 0.167969,-15.3886721 -1.936498,-1.9252481 -4.336217,-2.8738905 -6.749997,-2.7382813 z m 0.46875,38.8417964 c 0.37126,0.116891 0.85028,0.360798 1.48828,0.685547 0.82,0.418 3.410813,1.655001 5.757811,2.75 2.346997,1.094999 5.228345,2.441282 6.402344,2.988282 1.172998,0.547999 4.403737,2.081204 7.177734,3.408203 2.773997,1.326998 6.090095,2.896328 7.371094,3.486328 1.279998,0.588999 5.907254,2.810502 10.28125,4.9375 4.373995,2.126998 8.912938,4.302985 10.085937,4.833984 4.813995,2.180998 16.882508,8.105145 24.4375,11.994141 4.715995,2.426997 4.71673,2.376411 -0.07227,7.066406 -7.463993,7.310993 -11.838409,10.172077 -13.691407,8.955078 -0.641999,-0.420999 -1.95211,-1.130172 -2.912109,-1.576172 -3.712996,-1.722998 -7.333863,-3.51572 -11.130859,-5.511718 -2.173998,-1.141999 -4.531282,-2.306844 -5.238282,-2.589844 -0.706999,-0.282 -8.094024,-3.863035 -16.416015,-7.957031 -8.321992,-4.094996 -17.399831,-8.528517 -20.173828,-9.853516 -2.77401,-1.324999 -5.44173,-2.602844 -5.92774,-2.839844 -1.443,-0.702999 -1.48641,-6.048804 -0.10742,-13.091797 0.188,-0.959999 0.54401,-2.79322 0.79102,-4.074218 0.61275,-3.170997 0.76315,-3.962 1.87696,-3.611329 z m 5.00195,93.83984 c 0.472,-0.013 1.037813,0.30971 1.257813,0.72071 0.218999,0.41 0.629156,0.97772 0.910156,1.26172 2.755997,2.78099 9.507724,14.87849 15.011719,26.89648 2.132997,4.655 1.590601,4.68006 -6.400391,0.28906 -0.666999,-0.366 -21.316867,-10.51997 -32.880857,-16.16797 -2.081,-1.01599 -3.77839,-1.96156 -3.77539,-2.10156 0.019,-0.796 3.34888,-2.74666 7.42187,-4.34765 1.142,-0.45 2.6866,-1.08321 3.4336,-1.40821 4.74899,-2.068 13.614482,-5.10158 15.02148,-5.14258 z m -38.75391,18.77735 c 0.27433,-0.007 0.52471,0.0484 0.75196,0.16406 0.371,0.189 1.10858,0.52886 1.64258,0.75586 0.53299,0.228 3.03936,1.38141 5.56835,2.56641 2.529,1.18399 4.68407,2.15429 4.78907,2.15429 0.104,0 3.58438,1.65855 7.73437,3.68555 4.149,2.027 7.6085,3.68555 7.6875,3.68555 0.079,0 2.384,1.06804 5.125,2.37304 2.741,1.305 6.642926,3.161 8.669924,4.125 4.298996,2.045 12.262767,5.95141 13.384766,6.56641 0.975999,0.534 2.411673,1.1643 3.763671,1.6543 2.519998,0.911 2.905998,14.77169 0.625,22.42968 -0.487999,1.638 -1.037503,1.60996 -4.8125,-0.24804 -1.687998,-0.831 -4.464876,-2.16489 -6.171875,-2.96289 -5.316994,-2.485 -21.151476,-10.1929 -43.064456,-20.96289 -6.82899,-3.356 -14.0309,-6.8563 -16.0039,-7.7793 -4.435,-2.073 -4.4344,-2.12124 0.0586,-8.11524 5.19837,-6.93436 8.3317,-10.04268 10.25195,-10.09179 z m -18.24023,28.92773 c 1.0979,0.1081 3.57688,1.17788 9.26562,3.89063 2.661,1.269 4.93379,2.30859 5.05079,2.30859 0.117,0 2.4372,1.12782 5.1582,2.50781 2.721,1.381 5.79989,2.84868 6.83789,3.26368 1.039,0.414 4.24596,1.88462 7.12695,3.26562 2.881,1.382 6.19614,2.94747 7.36914,3.48047 10.49599,4.76999 29.538722,14.35352 30.011722,15.10351 0.858999,1.361 -6.941944,9.11778 -13.710937,13.63477 -2.572005,1.717 -2.916255,1.70476 -6.406255,-0.24023 -1.36599,-0.761 -8.08089,-4.04174 -10.08789,-4.92774 -1.067,-0.472 -6.47935,-3.09322 -12.02734,-5.82422 -5.54799,-2.73099 -13.22932,-6.47626 -17.07031,-8.32226 -12.41899,-5.967 -12.74411,-6.14522 -13.03711,-7.19922 -0.791,-2.842 -0.13255,-19.61291 0.81445,-20.75391 0.12675,-0.15275 0.33911,-0.22353 0.70508,-0.1875 z m 3.36133,37.68164 c 0.4612,-0.0855 1.47822,0.35168 4.38672,1.73242 4.98999,2.369 12.58519,6.03174 21.61718,10.42774 4.055,1.974 8.20747,3.97903 9.23047,4.45703 1.024,0.479 1.80533,1.0695 1.73633,1.3125 -0.3,1.047 -7.3643,3.97903 -14.6543,6.08203 -1.59999,0.462 -3.25759,0.98321 -3.68359,1.1582 -4.108,1.691 -5.66869,1.42996 -7.42969,-1.24804 -5.16499,-7.85499 -12.27734,-22.46474 -11.52734,-23.67774 0.0797,-0.129 0.17048,-0.21562 0.32422,-0.24414 z m 5.13867,53.00196 c 0.83675,0.19487 1.33042,1.11745 2.48242,3.00195 1.821,2.978 4.99805,9.25886 4.99805,9.88086 0,0.288 0.94569,2.79375 2.67969,7.09375 2.90099,7.19699 2.84091,7.56648 -0.95508,5.89648 -1.269,-0.559 -2.91902,-1.28237 -3.66602,-1.60937 -0.747,-0.326 -4.32613,-2.03869 -7.95312,-3.80469 -11.03699,-5.37199 -16.97377,-8.22391 -19.00977,-9.12891 -1.929,-0.85699 -2.62273,-1.44784 -2.30273,-1.96484 0.418,-0.677 9.42049,-4.69934 13.77148,-6.15234 2.654,-0.886 5.0882,-1.71766 5.4082,-1.84766 2.53,-1.027 3.71013,-1.56011 4.54688,-1.36523 z m -36.29102,17.18945 c 0.146,-0.014 3.20007,1.42903 6.78907,3.20703 3.58899,1.777 8.44597,4.14949 10.79297,5.27148 5.98999,2.863 11.48177,5.51745 21.25976,10.27344 4.651,2.262 8.60139,4.11328 8.77539,4.11328 2.842,0 3.1077,6.0343 0.8457,19.11328 -0.63099,3.653 -0.50948,3.62421 -5.27148,1.28321 -3.448,-1.696 -10.2101,-4.90691 -14.74609,-7.00391 -4.081,-1.886 -8.48126,-4.04306 -10.28125,-5.03906 -0.96,-0.531 -4.88852,-2.46678 -8.72852,-4.30078 -3.841,-1.834 -9.77641,-4.70486 -13.19141,-6.38086 -3.41399,-1.676 -7.746,-3.75228 -9.625,-4.61328 -2.97999,-1.365 -3.3672,-1.65182 -3.0332,-2.25782 0.673,-1.21899 6.73705,-6.9345 9.74805,-9.1875 1.6,-1.19799 3.1209,-2.35145 3.3789,-2.56445 0.258,-0.213 0.65105,-0.38672 0.87305,-0.38672 0.222,0 0.4043,-0.14908 0.4043,-0.33008 0,-0.30299 1.39876,-1.13626 2.00976,-1.19726 z"
       style="fill:#242424;fill-rule:evenodd"
       id="path52"
       sodipodi:nodetypes="scccscsccccccccccccccccccccccccccccsccccccccscscscccccccccccscccccccsccccccsccccccccccccccsccccscccssscscscsccccccccscscssccccccccccscccscsscccccccccssscsccccccccsccssscccccccssscsccccccccsccccscccccccccsssc" />
    <path
       id="path1"
       d="m 215.06222,30.229754 c -16.666,2.632 -26.54,13.965 -26.567,30.49 l -0.009,5.947 -1.134,1.134 c -5.61,5.61 -11.273,-5.394 -9.001,-17.489 1.005,-5.344 0.999,-5.194 0.194,-4.878 -0.4,0.158 -1.514,0.438 -2.474,0.623 -3.201,0.617 -4.068,0.82 -4.85,1.132 -0.427,0.171 -1.907,0.773 -3.29,1.339 -23.91,9.773 -26.655,42.111 -4.216,49.667 1.479,0.498 2.799,1.015 2.932,1.148 0.133,0.133 0.855,0.242 1.605,0.242 6.156,0 9.884,4.617996 7.328,9.076996 -1.963,3.423 -8.346,3.895 -16.386,1.211 -7.27,-2.427 -17.265,-12.128996 -17.265,-16.758996 0,-0.59 -1.247,-0.679 -2.236,-0.158 -0.37,0.195 -1.634,0.786 -2.807,1.314 -14.837,6.667996 -21.181,24.362996 -14.007,39.067996 l 1.609,3.298 -1.076,0.895 c -8.268,6.879 -11.704,11.595 -14.564,19.988 -5.659,16.604 2.07,35.361 17.931,43.515 2.563,1.317 3.123,3.452 1.883,7.183 -1.166,3.509 -0.319,14.491 1.423,18.466 3.545,8.088 10.997,16.452 14.658,16.452 0.287,0 0.689,0.147 0.891,0.327 0.583,0.517 4.491,1.943 6.092,2.221 l 1.454,0.254 v -3.217 c 0,-1.769 0.165,-3.752 0.367,-4.407 0.202,-0.656 0.663,-2.239 1.026,-3.52 2.667,-9.427 8.834,-14.189 13.129,-10.138 2.076,1.958 1.975,3.965 -0.382,7.609 -5.522,8.535 -3.448,21.138 4.816,29.268 3.098,3.048 3.006,3.053 5.245,-0.296 2.339,-3.497 11.325,-12.303 15.821,-15.504 2.95,-2.1 6.164,-4.149 6.509,-4.149 0.162,0 0.61,-0.349 0.996,-0.776 0.386,-0.427 0.836,-0.776 0.999,-0.776 0.163,0 1.926,-0.98 3.917,-2.177 6.477,-3.896 7.822,-4.672 12.543,-7.238 6.957,-3.781 7.172,-3.919 7.175,-4.597 0.001,-0.344 -0.347,-1.07 -0.774,-1.613 -0.426,-0.542 -0.775,-1.116 -0.775,-1.275 0,-0.158 -0.798,-1.964 -1.773,-4.012 -0.975,-2.048 -1.956,-4.161 -2.179,-4.694 -0.224,-0.534 -0.585,-1.312 -0.803,-1.73 -2.022,-3.876 -6.601,-21.037 -7.043,-26.398 -0.123,-1.494 -0.394,-3.938 -0.602,-5.432 -0.471,-3.382 -0.471,-12.109 0,-16.489 0.195,-1.814 0.454,-4.52 0.575,-6.013 0.122,-1.494 0.471,-3.676 0.775,-4.85 0.305,-1.174 0.919,-3.618 1.365,-5.432 1.201,-4.887 3.681,-11.646 5.973,-16.275 1.938,-3.916 5.565,-10.475 6.018,-10.883 0.118,-0.106 0.911,-1.226 1.761,-2.487 0.85,-1.262 1.739,-2.488 1.976,-2.725 0.237,-0.237 1.462,-1.658 2.723,-3.158 2.25,-2.679 6.956,-7.074 10.683,-9.979 l 1.889,-1.473 V 76.553754 c 0,-15.378 -0.152,-25.407 -0.406,-26.849 -2.434,-13.792 -14.691,-21.839 -29.662,-19.475 m -1.811,47.258 c 12.516,8.358 13.993,27.200996 3.385,43.181996 -10.183,15.341 -34.746,24.416 -34.746,12.837 0,-4.08 3.352,-6.594 10.282,-7.71 5.896,-0.951 12.579,-5.549 16.175,-11.13 7.358,-11.419 6.958,-23.199996 -1.019,-30.014996 -6.362,-5.435 -1.071,-11.834 5.923,-7.164 m -51.751,60.734996 c 6.32,3.282 2.68,11.369 -5.138,11.414 -2.593,0.015 -9.154,5.339 -10.721,8.698 -3.145,6.748 -2.017,13.721 3.478,21.488 1.939,2.74 2.088,3.676 0.943,5.92 -2.506,4.913 -8.406,2.453 -12.63,-5.266 -0.234,-0.427 -0.788,-1.413 -1.233,-2.191 -7.11,-12.456 -2.145,-29.925 10.58,-37.224 6.998,-4.014 10.981,-4.782 14.721,-2.839 m 17.979,38.138 c 14.408,4.147 23.291,19.623 20.064,34.96 -0.594,2.824 -2.703,7.874 -3.726,8.923 -0.312,0.32 -0.977,1.165 -1.478,1.878 -2.956,4.203 -8.322,4.787 -9.672,1.054 -0.809,-2.236 -0.435,-3.712 1.676,-6.617 8.127,-11.189 1.067,-28.244 -12.794,-30.906 -4.886,-0.939 -6.835,-4.083 -4.788,-7.725 1.618,-2.878 4.632,-3.319 10.718,-1.567"
       stroke="none"
       fill="#f8cc45"
       fill-rule="evenodd" />
  </g>
</svg>
